<?xml version="1.0" encoding="utf-8"?>
<svg width="18px" height="10.740694px" viewBox="0 0 18 10.740694" version="1.1" xmlns:xlink="http://www.w3.org/1999/xlink" xmlns="http://www.w3.org/2000/svg">
  <path d="M8.3497 7.43887L0.119499 0.373507C0.239799 0.153458 0.4375 0 0.675003 0L17.325 0C17.5624 0 17.76 0.153458 17.8805 0.373507L9.661 7.42209C9.4834 7.60562 9.2534 7.71987 9 7.71987C8.7535 7.71987 8.5288 7.61341 8.3497 7.43887ZM0 9.93514C0 9.9577 0.00900269 9.97609 0.0105972 9.99811L4.5528 5.49212L0 1.57754L0 9.93514ZM18 1.57754L18 9.93514C18 9.99261 17.9815 10.0408 17.972 10.0946L13.384 5.54247L18 1.57754ZM8.283 8.69325L5.2736 6.10877L5.298 6.14663L0.667999 10.7407L17.2197 10.7407L12.6318 6.18852L9.721 8.68909C9.7196 8.6907 9.7185 8.69204 9.7173 8.69325C9.6426 8.7824 9.556 8.85409 9.4607 8.91142C9.3222 8.99506 9.1656 9.04568 9 9.04568C8.8332 9.04568 8.6753 8.9964 8.536 8.91142C8.4452 8.85611 8.362 8.78616 8.29 8.70171L8.2865 8.69754L8.283 8.69325Z" id="Combined-Shape" fill="#000000" fill-rule="evenodd" stroke="none" />
</svg>