<?xml version="1.0" encoding="utf-8"?>
<svg width="12.000008px" height="12px" viewBox="0 0 12.000008 12" version="1.1" xmlns:xlink="http://www.w3.org/1999/xlink" xmlns="http://www.w3.org/2000/svg">
  <path d="M4.57771 2.05492C5.19171 2.82831 4.10051 3.85868 4.10051 3.85868L1.42201 0.39834C2.54031 -0.43951 3.23901 0.30459 3.23901 0.30459C3.23901 0.30459 3.96401 1.28039 4.57771 2.05492ZM11.0932 11.583C10.949 11.69 10.0707 12.27 8.42521 11.8483C7.25671 11.5491 4.70621 10.3153 2.66441 8.05227C1.55251 6.81987 0.81321 5.31418 0.195007 3.52842C-0.306992 1.95385 0.24321 1.26509 0.905708 0.802807L3.57681 4.26653C3.57681 4.26653 2.75721 4.86784 3.52781 5.84413C3.52762 5.84424 4.56572 7.69844 6.85961 8.99692C7.20301 9.25742 7.54281 9.14711 7.91541 8.6556L8.96101 9.61848C9.04021 9.69202 9.12151 9.76727 9.20331 9.84237L9.22731 9.86452C9.22871 9.86573 9.22971 9.86724 9.23101 9.86846L11.0932 11.583ZM11.5487 11.0981L8.37541 8.17403C9.32481 7.1755 10.1266 7.78497 10.1266 7.78497C10.1266 7.78497 10.9925 8.61409 11.7166 9.26623C12.4407 9.91724 11.5487 11.0981 11.5487 11.0981Z" id="Combined-Shape" fill="#000000" fill-rule="evenodd" stroke="none" />
</svg>