<?xml version="1.0" encoding="utf-8"?>
<svg width="16px" height="24px" viewBox="0 0 16 24" version="1.1" xmlns:xlink="http://www.w3.org/1999/xlink" xmlns="http://www.w3.org/2000/svg">
  <path d="M7.99965 0C3.58859 0 0 3.73682 0 8.3291C0 12.7495 7.25822 23.0776 7.56727 23.5151L7.8557 23.9238C7.88943 23.9717 7.94314 24 7.99965 24C8.05703 24 8.1104 23.9717 8.14448 23.9238L8.43273 23.5151C8.74195 23.0776 16 12.7495 16 8.3291C16 3.73682 12.4108 0 7.99965 0ZM8 2.6665C10.9415 2.6665 13.3333 5.05859 13.3333 8C13.3333 10.9399 10.9414 13.3335 8 13.3335C5.06028 13.3335 2.66667 10.9399 2.66667 8C2.66667 5.05859 5.06017 2.6665 8 2.6665Z" id="Shape" fill="#FFFFFF" stroke="none" />
</svg>