<?xml version="1.0" encoding="utf-8"?>
<svg width="20.000061px" height="20px" viewBox="0 0 20.000061 20" version="1.1" xmlns:xlink="http://www.w3.org/1999/xlink" xmlns="http://www.w3.org/2000/svg">
  <path d="M7.16232 0C5.32932 0 3.49632 0.698155 2.09782 2.09444C-0.699276 4.887 -0.699276 9.41461 2.09782 12.2072C4.75142 14.8565 8.96902 14.992 11.783 12.6143L13.2991 14.1277L12.939 14.4882C12.7817 14.6458 12.782 14.9011 12.9395 15.0585L17.771 19.8821C17.9285 20.0395 18.1838 20.0393 18.3412 19.8817L19.882 18.3388C20.0395 18.1812 20.0393 17.9259 19.8817 17.7685L15.0503 12.9449C14.8926 12.7875 14.6373 12.7877 14.48 12.9453L14.12 13.3058L12.6078 11.7962C15.0174 8.98672 14.8905 4.75383 12.227 2.09444C10.8283 0.698155 8.99533 0 7.16232 0ZM7.16232 0.878207C8.77023 0.878207 10.378 1.49057 11.605 2.71537C14.0584 5.16499 14.0584 9.13661 11.605 11.5862C9.15133 14.0358 5.17332 14.0358 2.71972 11.5862C0.266226 9.13661 0.266226 5.16499 2.71972 2.71537C3.94653 1.49057 5.55442 0.878207 7.16232 0.878207Z" id="Combined-Shape" fill="#6D7278" fill-rule="evenodd" stroke="none" />
</svg>