<?xml version="1.0" encoding="utf-8"?>
<svg width="15px" height="12px" viewBox="0 0 15 12" version="1.1" xmlns:xlink="http://www.w3.org/1999/xlink" xmlns="http://www.w3.org/2000/svg">
  <path d="M7.62891 0C3.5645 0 0.258896 2.62724 0.258896 5.85568C0.258896 6.93484 0.626999 7.97944 1.32649 8.89318L0 12L4.03709 10.9716C5.131 11.4562 6.36749 11.7114 7.62891 11.7114C11.6932 11.7114 15 9.08541 15 5.85568C15 2.62724 11.6932 0 7.62891 0ZM7.6125 0.90909C11.107 0.90909 13.95 3.11061 13.95 5.81818C13.95 8.52511 11.107 10.7273 7.6125 10.7273C6.44749 10.7273 5.30811 10.48 4.3183 10.0136L4.08051 9.9L1.7225 10.4875L2.496 8.72386L2.3295 8.53068C1.63921 7.72591 1.27499 6.78896 1.27499 5.81818C1.27499 3.11061 4.1187 0.90909 7.6125 0.90909ZM3.1335 4.3C3.345 4.12454 3.6371 4.03636 4.0101 4.03636C4.1935 4.03636 4.36751 4.05732 4.53391 4.1C4.7005 4.14268 4.87489 4.20323 5.0565 4.28068L4.8152 4.85227C4.62711 4.7764 4.4718 4.72322 4.3488 4.69318C4.2258 4.66315 4.10451 4.64773 3.9855 4.64773C3.84399 4.64773 3.73531 4.68065 3.6597 4.74545C3.5842 4.81026 3.5472 4.89454 3.5472 4.99886C3.5472 5.06367 3.5625 5.11997 3.5929 5.16818C3.6235 5.21639 3.67149 5.26291 3.7382 5.30795C3.80501 5.353 3.96249 5.43417 4.2117 5.55114C4.5412 5.70604 4.76801 5.86135 4.8902 6.01704C5.0125 6.17274 5.073 6.36374 5.073 6.58977C5.073 6.90275 4.95869 7.14935 4.72951 7.32954C4.5005 7.50974 4.1817 7.6 3.7735 7.6C3.3972 7.6 3.0645 7.53001 2.77499 7.39091L2.77499 6.70795C3.01289 6.81228 3.2137 6.88687 3.37849 6.92955C3.5433 6.97223 3.6942 6.99318 3.8308 6.99318C3.9948 6.99318 4.1205 6.96165 4.20821 6.9C4.29581 6.83835 4.3405 6.74671 4.3405 6.625C4.3405 6.55703 4.3205 6.49727 4.282 6.44432C4.2435 6.39137 4.1868 6.33991 4.11211 6.29091C4.03731 6.24191 3.8849 6.1643 3.655 6.05682C3.4395 5.95724 3.2775 5.861 3.16991 5.76932C3.06219 5.67764 2.9765 5.57171 2.91209 5.45C2.84779 5.32829 2.81599 5.18554 2.81599 5.02273C2.81599 4.71607 2.9221 4.47546 3.1335 4.3ZM11.3859 4.03636C11.0129 4.03636 10.7207 4.12454 10.5093 4.3C10.2979 4.47546 10.1929 4.71607 10.1929 5.02273C10.1929 5.18554 10.2247 5.32829 10.289 5.45C10.3533 5.57171 10.4391 5.67764 10.5468 5.76932C10.6545 5.861 10.8165 5.95724 11.032 6.05682C11.2619 6.1643 11.4143 6.24191 11.489 6.29091C11.5638 6.33991 11.6205 6.39137 11.6589 6.44432C11.6975 6.49727 11.7165 6.55703 11.7165 6.625C11.7165 6.74671 11.6727 6.83835 11.5851 6.9C11.4975 6.96165 11.3718 6.99318 11.2078 6.99318C11.0711 6.99318 10.9202 6.97223 10.7555 6.92955C10.5905 6.88687 10.3898 6.81228 10.1519 6.70795L10.1519 7.39091C10.4413 7.53001 10.7741 7.6 11.1505 7.6C11.5587 7.6 11.8775 7.50974 12.1065 7.32954C12.3357 7.14935 12.45 6.90275 12.45 6.58977C12.45 6.36374 12.3893 6.17274 12.2671 6.01704C12.145 5.86135 11.9182 5.70604 11.5885 5.55114C11.3395 5.43417 11.1819 5.353 11.1152 5.30795C11.0485 5.26291 10.9993 5.21639 10.9687 5.16818C10.9382 5.11997 10.923 5.06367 10.923 4.99886C10.923 4.89454 10.9611 4.81026 11.0367 4.74545C11.1122 4.68065 11.221 4.64773 11.3625 4.64773C11.4815 4.64773 11.6027 4.66315 11.7257 4.69318C11.8487 4.72322 12.004 4.7764 12.1921 4.85227L12.4335 4.28068C12.2519 4.20323 12.0773 4.14268 11.9109 4.1C11.7445 4.05732 11.5692 4.03636 11.3859 4.03636ZM5.7117 7.55227L5.7117 4.08636L6.73 4.08636L7.5645 6.7375L7.57851 6.7375L8.4632 4.08636L9.48151 4.08636L9.48151 7.55227L8.7843 7.55227L8.7843 5.91136C8.7843 5.83391 8.78551 5.74548 8.7878 5.64432C8.7903 5.54316 8.8015 5.27377 8.8205 4.8375L8.79851 4.8375L7.8902 7.55227L7.2045 7.55227L6.3562 4.83295L6.33389 4.83295C6.3645 5.38619 6.3795 5.75483 6.3795 5.93977L6.3795 7.55227L5.7117 7.55227Z" id="Combined-Shape" fill="#000000" fill-rule="evenodd" stroke="none" />
</svg>