<?xml version="1.0" encoding="utf-8"?>
<svg width="15px" height="12px" viewBox="0 0 15 12" version="1.1" xmlns:xlink="http://www.w3.org/1999/xlink" xmlns="http://www.w3.org/2000/svg">
  <g id="Group">
    <path d="M5.6417 11.2731C5.195 11.2731 5.2709 11.1122 5.1167 10.7063L3.8027 6.58118L13.9182 0.857353" id="Path" fill="#6D7278" stroke="none" />
    <path d="M5.6417 11.2731C5.9867 11.2731 6.139 11.1227 6.3317 10.9442L8.1707 9.23842L5.8767 7.91891" id="Path" fill="#FF5500" stroke="none" />
    <path d="M5.8763 7.91923L11.4353 11.8365C12.0697 12.1704 12.5274 11.9975 12.6854 11.2748L14.9482 1.10432C15.1799 0.218407 14.5942 -0.1834 13.9873 0.0793841L0.700402 4.96613C-0.206598 5.3131 -0.201298 5.79572 0.535002 6.01077L3.9447 7.02585L11.8387 2.27572C12.2113 2.06017 12.5533 2.17605 12.2727 2.41369" id="Path" fill="#000000" stroke="none" />
  </g>
</svg>