<?xml version="1.0" encoding="utf-8"?>
<svg width="15px" height="12px" viewBox="0 0 15 12" version="1.1" xmlns:xlink="http://www.w3.org/1999/xlink" xmlns="http://www.w3.org/2000/svg">
  <path d="M15 1.42028C14.449 1.66204 13.8554 1.82409 13.233 1.89775C13.8686 1.5234 14.3564 0.928944 14.5862 0.222704C13.991 0.569324 13.3333 0.820623 12.6307 0.955807C12.0708 0.368284 11.2705 0 10.3848 0C8.6864 0 7.3085 1.35702 7.3085 3.02946C7.3085 3.2669 7.33501 3.4974 7.3877 3.71924C4.83 3.59185 2.563 2.38821 1.0442 0.55286C0.779205 1.0026 0.627808 1.5234 0.627808 2.07799C0.627808 3.12738 1.17101 4.05546 1.9968 4.59879C1.49319 4.58405 1.01781 4.44714 0.602203 4.22097L0.602203 4.25823C0.602203 5.72617 1.66299 6.95061 3.07201 7.22877C2.814 7.29983 2.54179 7.33536 2.261 7.33536C2.063 7.33536 1.869 7.31716 1.68159 7.28163C2.07339 8.4844 3.2092 9.36049 4.5563 9.38475C3.5033 10.1967 2.1756 10.6811 0.734299 10.6811C0.485992 10.6811 0.240402 10.6672 0 10.6395C1.362 11.4983 2.9803 12 4.71741 12C10.3786 12 13.4733 7.38475 13.4733 3.38042C13.4733 3.24957 13.4707 3.11785 13.4654 2.98874C14.0667 2.56153 14.589 2.02859 15 1.42028" id="Path" fill="#000000" stroke="none" />
</svg>